<svg width="45" height="12" viewBox="0 0 45 12" fill="none" xmlns="http://www.w3.org/2000/svg">
<g clip-path="url(#clip0_24515_3938)">
<path fill-rule="evenodd" clip-rule="evenodd" d="M25.3529 10.497C25.3341 10.497 25.3177 10.4901 25.3035 10.4763C25.2895 10.4624 25.2823 10.4463 25.2823 10.4279V8.62995C25.2823 8.60972 25.2895 8.59309 25.3035 8.58021C25.3177 8.56726 25.3341 8.56084 25.3529 8.56084H25.748C25.7687 8.56084 25.7856 8.56726 25.7988 8.58021C25.812 8.59309 25.8185 8.60972 25.8185 8.62995V10.0628H26.6652C26.6859 10.0628 26.7033 10.0697 26.7174 10.0835C26.7315 10.0973 26.7386 10.1144 26.7386 10.1347V10.4279C26.7386 10.4481 26.7315 10.4648 26.7174 10.4777C26.7033 10.4906 26.6859 10.497 26.6652 10.497H25.3529ZM26.8653 10.497C26.8503 10.497 26.8366 10.491 26.8244 10.479C26.8121 10.467 26.8061 10.4536 26.8061 10.4389C26.8061 10.4279 26.807 10.4195 26.8089 10.414L27.4664 8.64104C27.4852 8.58755 27.5228 8.56084 27.5793 8.56084H28.0195C28.0759 8.56084 28.1136 8.58755 28.1324 8.64104L28.79 10.414C28.7919 10.4195 28.7928 10.4279 28.7928 10.4389C28.7928 10.4536 28.7867 10.467 28.7744 10.479C28.7622 10.491 28.7486 10.497 28.7335 10.497H28.3666C28.3215 10.497 28.2895 10.4767 28.2707 10.4361L28.1691 10.1679H27.4297L27.3281 10.4361C27.3093 10.4767 27.2773 10.497 27.2322 10.497H26.8653ZM27.549 9.75306H28.0513L27.8002 9.04772L27.549 9.75306ZM29.0813 10.497C29.0606 10.497 29.0432 10.4906 29.0291 10.4777C29.015 10.4647 29.0079 10.4481 29.0079 10.4279V8.63272C29.0079 8.61246 29.015 8.59538 29.0291 8.58158C29.0432 8.56775 29.0606 8.56084 29.0813 8.56084H29.4002C29.4472 8.56084 29.4811 8.58112 29.5017 8.62166L29.9871 9.47358L30.4754 8.62166C30.496 8.58112 30.5299 8.56084 30.5769 8.56084H30.8959C30.9166 8.56084 30.9339 8.56775 30.9481 8.58158C30.9622 8.59538 30.9692 8.61246 30.9692 8.63272V10.4279C30.9692 10.4481 30.9622 10.4647 30.9481 10.4777C30.9339 10.4906 30.9166 10.497 30.8959 10.497H30.5375C30.5186 10.497 30.5022 10.4901 30.4881 10.4763C30.474 10.4624 30.4669 10.4463 30.4669 10.4279V9.42101L30.1621 9.96872C30.1377 10.0111 30.1047 10.0323 30.0633 10.0323H29.911C29.8733 10.0323 29.8404 10.0111 29.8122 9.96872L29.5102 9.42101V10.4279C29.5102 10.4481 29.5031 10.4647 29.4891 10.4777C29.4749 10.4906 29.4575 10.497 29.4369 10.497H29.0813ZM31.4228 10.497C31.404 10.497 31.3875 10.4901 31.3734 10.4763C31.3593 10.4624 31.3523 10.4463 31.3523 10.4279V8.63272C31.3523 8.61246 31.3588 8.59538 31.372 8.58158C31.3852 8.56775 31.4021 8.56084 31.4228 8.56084H32.2948C32.5337 8.56084 32.7115 8.60875 32.8282 8.70466C32.9448 8.80055 33.0032 8.93698 33.0032 9.11401C33.0032 9.20255 32.9792 9.27906 32.9312 9.34358C32.8833 9.40812 32.8301 9.45515 32.7717 9.48466C32.8489 9.51784 32.9138 9.57269 32.9665 9.64923C33.0192 9.72575 33.0455 9.81198 33.0455 9.90784C33.0455 10.0941 32.9829 10.2388 32.8578 10.3421C32.7327 10.4453 32.5535 10.497 32.3202 10.497H31.4228ZM32.2363 9.32678C32.3058 9.32678 32.3594 9.30835 32.3971 9.27146C32.4347 9.23458 32.4535 9.18669 32.4535 9.12772C32.4535 9.07055 32.4351 9.02404 32.3985 8.98809C32.3618 8.95212 32.3077 8.93418 32.2363 8.93418H31.8837V9.32678H32.2363ZM32.2617 10.1234C32.335 10.1234 32.3919 10.1026 32.4323 10.0612C32.4727 10.0197 32.493 9.96861 32.493 9.90775C32.493 9.84509 32.4723 9.79304 32.4309 9.75152C32.3895 9.71009 32.3331 9.68935 32.2617 9.68935H31.8837V10.1234H32.2617ZM33.4193 10.497C33.4005 10.497 33.3841 10.4901 33.3699 10.4763C33.3558 10.4624 33.3487 10.4463 33.3487 10.4279V8.63272C33.3487 8.61246 33.3554 8.59538 33.3685 8.58158C33.3817 8.56775 33.3986 8.56084 33.4193 8.56084H34.1615C34.44 8.56084 34.6563 8.62581 34.8106 8.75584C34.9649 8.88581 35.0458 9.07252 35.0533 9.31592C35.0552 9.36941 35.0561 9.44041 35.0561 9.52892C35.0561 9.61744 35.0552 9.68746 35.0533 9.73912C35.0345 10.2444 34.7419 10.497 34.1756 10.497H33.4193ZM34.1615 10.0821C34.28 10.0821 34.3675 10.0544 34.424 9.99912C34.4804 9.94381 34.5105 9.85526 34.5143 9.73355C34.518 9.68009 34.5199 9.61095 34.5199 9.52612C34.5199 9.44129 34.518 9.37306 34.5143 9.32143C34.5105 9.20343 34.478 9.11629 34.4169 9.06006C34.3557 9.00381 34.2659 8.97569 34.1474 8.97569H33.8793V10.0821H34.1615ZM35.2677 10.497C35.2525 10.497 35.2391 10.491 35.2268 10.479C35.2145 10.467 35.2085 10.4536 35.2085 10.4389C35.2085 10.4279 35.2094 10.4195 35.2111 10.414L35.8688 8.64104C35.8877 8.58755 35.9251 8.56084 35.9817 8.56084H36.422C36.4783 8.56084 36.516 8.58755 36.5348 8.64104L37.1923 10.414C37.1943 10.4195 37.1951 10.4279 37.1951 10.4389C37.1951 10.4536 37.1891 10.467 37.1768 10.479C37.1645 10.491 37.1508 10.497 37.136 10.497H36.7691C36.724 10.497 36.692 10.4767 36.6731 10.4361L36.5714 10.1679H35.832L35.7305 10.4361C35.7117 10.4767 35.6797 10.497 35.6345 10.497H35.2677ZM35.9505 9.75306H36.4528L36.2017 9.04772L35.9505 9.75306Z" fill="#121212"/>
<path fill-rule="evenodd" clip-rule="evenodd" d="M37.7808 10.497C37.7603 10.497 37.7428 10.4905 37.7288 10.4776C37.7145 10.4647 37.7077 10.4481 37.7077 10.4278V9.01162H37.2108C37.1903 9.01162 37.1728 9.00516 37.1588 8.99228C37.1445 8.97936 37.1374 8.96276 37.1374 8.94248V8.63268C37.1374 8.61245 37.1445 8.59536 37.1588 8.58154C37.1728 8.56771 37.1903 8.56079 37.2108 8.56079H38.7434C38.764 8.56079 38.7814 8.56771 38.7954 8.58154C38.8097 8.59536 38.8165 8.61245 38.8165 8.63268V8.94248C38.8165 8.96276 38.8097 8.97936 38.7954 8.99228C38.7814 9.00516 38.764 9.01162 38.7434 9.01162H38.2465V10.4278C38.2465 10.4481 38.2394 10.4647 38.2254 10.4776C38.2114 10.4905 38.194 10.497 38.1734 10.497H37.7808ZM39.1363 10.497C39.1177 10.497 39.1011 10.49 39.0868 10.4762C39.0728 10.4624 39.0657 10.4462 39.0657 10.4278V8.63268C39.0657 8.61245 39.0723 8.59536 39.0857 8.58154C39.0988 8.56771 39.1157 8.56079 39.1363 8.56079H40.4683C40.4891 8.56079 40.5065 8.56771 40.5205 8.58154C40.5345 8.59536 40.5417 8.61245 40.5417 8.63268V8.90654C40.5417 8.92682 40.5345 8.94339 40.5205 8.95628C40.5065 8.96922 40.4891 8.97568 40.4683 8.97568H39.5765V9.32696H40.4063C40.4268 9.32696 40.4443 9.33388 40.4585 9.34768C40.4725 9.36154 40.4797 9.37856 40.4797 9.39888V9.65056C40.4797 9.67085 40.4725 9.68791 40.4585 9.70174C40.4443 9.71556 40.4268 9.72251 40.4063 9.72251H39.5765V10.0821H40.4908C40.5117 10.0821 40.5291 10.089 40.5431 10.1028C40.5571 10.1166 40.5643 10.1337 40.5643 10.154V10.4278C40.5643 10.4481 40.5571 10.4647 40.5431 10.4776C40.5291 10.4905 40.5117 10.497 40.4908 10.497H39.1363ZM41.6251 10.5246C41.4428 10.5246 41.2874 10.4988 41.1594 10.4472C41.0317 10.3956 40.9348 10.3274 40.8688 10.2425C40.8031 10.1577 40.7683 10.0655 40.7645 9.96591C40.7645 9.94934 40.7705 9.93551 40.7828 9.92442C40.7951 9.91339 40.8097 9.90785 40.8265 9.90785H41.202C41.2245 9.90785 41.2428 9.91154 41.2568 9.91893C41.2711 9.92628 41.2865 9.93916 41.3034 9.95759C41.328 10.0019 41.366 10.0383 41.4177 10.0669C41.4694 10.0955 41.5385 10.1098 41.6251 10.1098C41.7268 10.1098 41.8048 10.0945 41.8594 10.0642C41.914 10.0337 41.9411 9.99176 41.9411 9.93828C41.9411 9.89959 41.9271 9.86774 41.8988 9.84288C41.8708 9.81796 41.8257 9.79579 41.7634 9.77645C41.7014 9.75714 41.612 9.73545 41.4954 9.71148C41.2677 9.66722 41.0974 9.59991 40.9845 9.50953C40.8717 9.41919 40.8154 9.29011 40.8154 9.12234C40.8154 9.00799 40.8477 8.90611 40.9125 8.81668C40.9774 8.72722 41.0697 8.65765 41.1891 8.60785C41.3085 8.55805 41.4474 8.53319 41.6054 8.53319C41.7708 8.53319 41.9145 8.56131 42.0357 8.61751C42.1571 8.67379 42.2503 8.74382 42.3151 8.82771C42.38 8.91165 42.4145 8.99414 42.4183 9.07531C42.4183 9.09188 42.4125 9.10619 42.4011 9.11816C42.39 9.13016 42.376 9.13614 42.3588 9.13614H41.964C41.9225 9.13614 41.8905 9.11956 41.868 9.08634C41.8565 9.04762 41.8274 9.01491 41.7803 8.98816C41.7334 8.96145 41.6751 8.94808 41.6054 8.94808C41.5265 8.94808 41.4651 8.96191 41.422 8.98956C41.3788 9.01719 41.3571 9.05779 41.3571 9.11125C41.3571 9.16474 41.3854 9.20668 41.4417 9.23711C41.4983 9.26756 41.6037 9.29842 41.7577 9.32976C41.9345 9.36111 42.0754 9.40031 42.1797 9.44731C42.2843 9.49431 42.3611 9.55522 42.4111 9.62985C42.4611 9.70456 42.486 9.79908 42.486 9.91339C42.486 10.0388 42.4491 10.1476 42.376 10.2398C42.3025 10.332 42.2008 10.4025 42.0711 10.4514C41.9411 10.5002 41.7925 10.5246 41.6251 10.5246ZM43.2645 10.497C43.244 10.497 43.2265 10.4905 43.2125 10.4776C43.1983 10.4647 43.1911 10.4481 43.1911 10.4278V9.01162H42.6945C42.674 9.01162 42.6565 9.00516 42.6425 8.99228C42.6283 8.97936 42.6214 8.96276 42.6214 8.94248V8.63268C42.6214 8.61245 42.6283 8.59536 42.6425 8.58154C42.6565 8.56771 42.674 8.56079 42.6945 8.56079H44.2268C44.2477 8.56079 44.2651 8.56771 44.2791 8.58154C44.2934 8.59536 44.3003 8.61245 44.3003 8.63268V8.94248C44.3003 8.96276 44.2934 8.97936 44.2791 8.99228C44.2651 9.00516 44.2477 9.01162 44.2268 9.01162H43.7303V10.4278C43.7303 10.4481 43.7231 10.4647 43.7091 10.4776C43.6951 10.4905 43.6777 10.497 43.6568 10.497H43.2645Z" fill="#121212"/>
<path d="M21.8857 9.15745C21.9327 9.12453 21.9951 9.12153 22.0456 9.15019L22.1014 9.18227L23.7596 10.1253V10.0327C23.7597 9.9567 23.8433 9.90916 23.9103 9.94705L24.2311 10.129C24.2623 10.1466 24.2816 10.1793 24.2817 10.2146V10.516C24.2817 10.5418 24.2713 10.5666 24.2529 10.5852L24.1017 10.737C24.045 10.8082 23.9617 10.8365 23.8874 10.7944L22.6949 10.1142L22.6943 11.3977C22.6985 11.4458 22.6783 11.493 22.6399 11.5235C22.6023 11.5534 22.6023 11.5536 22.4201 11.6984C22.3927 11.7233 22.357 11.7372 22.3196 11.7372C22.238 11.7372 22.1718 11.6721 22.1717 11.5919L22.172 9.81676L21.9711 9.70236L21.8695 9.75985C21.8647 9.76316 21.8663 9.76219 21.7638 9.82039C21.6916 9.86196 21.6006 9.84007 21.559 9.76959C21.5491 9.75282 21.549 9.7527 21.5024 9.67333L21.446 9.5779C21.4041 9.50659 21.4265 9.4173 21.4982 9.37647C21.5157 9.36653 21.5158 9.36648 21.5969 9.32065L21.8417 9.18199L21.8857 9.15745ZM22.4387 7.63065C22.4872 7.63296 22.535 7.6485 22.5685 7.67193L23.3123 8.09493L23.3537 8.11782C23.3566 8.1195 23.6047 8.26067 24.1098 8.54805L24.1511 8.5715C24.1914 8.5945 24.2245 8.6273 24.2473 8.66693C24.2699 8.70616 24.2818 8.75079 24.2814 8.79527L24.2817 9.61947C24.2817 9.69565 24.1977 9.74325 24.1307 9.70513L23.8098 9.52267C23.7788 9.50499 23.7596 9.4723 23.7596 9.43702V8.94176L23.1061 8.56982C23.1005 8.56707 23.0877 8.55985 23.0523 8.53967L22.4265 8.18339L21.7752 8.55336C21.769 8.55739 21.7689 8.55745 21.7652 8.55979C21.7629 8.56113 21.7192 8.58628 21.7192 8.58628L21.0933 8.94176V10.459L21.7471 10.8313C21.7512 10.8333 21.7603 10.8383 21.802 10.862L21.8154 10.8737L21.8266 10.8884C21.8513 10.907 21.8662 10.9359 21.8662 10.9669V11.3304C21.8662 11.4074 21.7808 11.4548 21.7127 11.4144L21.5409 11.3059L21.4999 11.283C21.4969 11.2814 21.2593 11.1464 20.7431 10.8527L20.7021 10.8296C20.6617 10.8066 20.6285 10.7735 20.6056 10.7339C20.583 10.6946 20.5711 10.6499 20.5716 10.6055L20.5713 8.79387C20.5713 8.74573 20.5852 8.69868 20.6109 8.65827C20.6363 8.61776 20.6731 8.58442 20.7113 8.56619L21.4577 8.14182L21.4985 8.11836C21.512 8.11073 21.5122 8.11067 21.5397 8.09522L22.2546 7.68896L22.2962 7.66467C22.3397 7.64005 22.3889 7.62839 22.4387 7.63065Z" fill="#121212"/>
<path d="M6.68262 8.22168H8.09595V8.48159H6.96528V9.24188H7.90101V9.50179H6.96528V10.496H6.68262V8.22168Z" fill="#121212"/>
<path d="M8.99995 10.5155C8.83966 10.5155 8.6967 10.4798 8.57108 10.4083C8.44761 10.3368 8.35122 10.2372 8.28191 10.1094C8.2126 9.98157 8.17794 9.83428 8.17794 9.66751C8.17794 9.50071 8.2126 9.35342 8.28191 9.22562C8.35122 9.09782 8.44761 8.99819 8.57108 8.92671C8.6967 8.85525 8.83966 8.81951 8.99995 8.81951C9.16024 8.81951 9.30211 8.85525 9.42558 8.92671C9.5512 8.99819 9.64868 9.09782 9.71799 9.22562C9.78731 9.35342 9.82197 9.50071 9.82197 9.66751C9.82197 9.83428 9.78731 9.98157 9.71799 10.1094C9.64868 10.2372 9.5512 10.3368 9.42558 10.4083C9.30211 10.4798 9.16024 10.5155 8.99995 10.5155ZM8.99995 10.2783C9.10825 10.2783 9.20356 10.2523 9.28587 10.2003C9.37034 10.1484 9.43532 10.0758 9.48081 9.98265C9.52629 9.88951 9.54905 9.78448 9.54905 9.66751C9.54905 9.55054 9.52629 9.44548 9.48081 9.35234C9.43532 9.25919 9.37034 9.18665 9.28587 9.13465C9.20356 9.08268 9.10825 9.05668 8.99995 9.05668C8.89165 9.05668 8.79526 9.08268 8.71078 9.13465C8.62848 9.18665 8.56458 9.25919 8.51909 9.35234C8.4736 9.44548 8.45086 9.55054 8.45086 9.66751C8.45086 9.78448 8.4736 9.88951 8.51909 9.98265C8.56458 10.0758 8.62848 10.1484 8.71078 10.2003C8.79526 10.2523 8.89165 10.2783 8.99995 10.2783Z" fill="#121212"/>
<path d="M10.969 8.83899V9.09891H10.8358C10.6777 9.09891 10.5639 9.15199 10.4946 9.25814C10.4275 9.36425 10.3939 9.49531 10.3939 9.65125V10.496H10.1275V8.83899H10.3582L10.3939 9.08916C10.4415 9.01336 10.5033 8.95271 10.5791 8.90722C10.6549 8.86174 10.7599 8.83899 10.8943 8.83899H10.969Z" fill="#121212"/>
<path d="M13.0613 8.81951C13.2476 8.81951 13.3981 8.87799 13.5129 8.99494C13.6299 9.11191 13.6884 9.29385 13.6884 9.54079V10.496H13.422V9.55702C13.422 9.39674 13.3873 9.27437 13.318 9.18988C13.2508 9.10542 13.1545 9.06319 13.0288 9.06319C12.8902 9.06319 12.7808 9.11191 12.7007 9.20939C12.6227 9.30685 12.5837 9.44008 12.5837 9.60902V10.496H12.3173V9.55702C12.3173 9.39674 12.2826 9.27437 12.2133 9.18988C12.144 9.10542 12.0455 9.06319 11.9177 9.06319C11.7833 9.06319 11.6761 9.11517 11.596 9.21914C11.518 9.32094 11.479 9.45522 11.479 9.62202V10.496H11.2126V8.83899H11.4433L11.479 9.06642C11.5982 8.90182 11.7595 8.81951 11.9631 8.81951C12.0823 8.81951 12.1873 8.84657 12.2783 8.90074C12.3714 8.95271 12.4407 9.03068 12.4862 9.13465C12.6054 8.92457 12.7971 8.81951 13.0613 8.81951Z" fill="#121212"/>
<path d="M13.9717 9.66751C13.9717 9.49856 14.0041 9.35016 14.0691 9.22239C14.1363 9.09459 14.2294 8.99602 14.3485 8.92671C14.4677 8.85525 14.6041 8.81951 14.7579 8.81951C14.9095 8.81951 15.0438 8.85091 15.1608 8.91374C15.2778 8.97654 15.3698 9.06751 15.437 9.18665C15.5041 9.30577 15.5399 9.44548 15.5442 9.60577C15.5442 9.62959 15.542 9.66751 15.5377 9.71948H14.2511V9.74222C14.2554 9.90468 14.3052 10.0347 14.4005 10.1321C14.4958 10.2296 14.6204 10.2783 14.7742 10.2783C14.8933 10.2783 14.994 10.2491 15.0763 10.1906C15.1608 10.1299 15.2171 10.0466 15.2453 9.94042H15.5149C15.4825 10.1094 15.4012 10.248 15.2713 10.3563C15.1413 10.4624 14.9821 10.5155 14.7937 10.5155C14.6291 10.5155 14.485 10.4809 14.3615 10.4115C14.2381 10.3401 14.1417 10.2404 14.0724 10.1126C14.0052 9.98265 13.9717 9.83428 13.9717 9.66751ZM15.268 9.49857C15.255 9.35777 15.202 9.24837 15.1088 9.17039C15.0179 9.09242 14.902 9.05342 14.7612 9.05342C14.6355 9.05342 14.5251 9.09459 14.4298 9.17691C14.3345 9.25919 14.2803 9.36642 14.2673 9.49857H15.268Z" fill="#121212"/>
<path d="M16.6897 8.83899V9.09891H16.5565C16.3984 9.09891 16.2847 9.15199 16.2153 9.25814C16.1482 9.36425 16.1146 9.49531 16.1146 9.65125V10.496H15.8482V8.83899H16.0789L16.1146 9.08916C16.1623 9.01336 16.224 8.95271 16.2998 8.90722C16.3756 8.86174 16.4807 8.83899 16.615 8.83899H16.6897Z" fill="#121212"/>
<path d="M16.9333 8.22168H17.1998V10.496H16.9333V8.22168Z" fill="#121212"/>
<path d="M17.6817 8.83899L18.1918 10.1906L18.6857 8.83899H18.9683L18.2048 10.7754C18.1658 10.8751 18.1312 10.9498 18.1008 10.9996C18.0705 11.0494 18.0326 11.0863 17.9871 11.1101C17.9416 11.1339 17.881 11.1458 17.8052 11.1458H17.4868V10.9021H17.7239C17.7759 10.9021 17.8149 10.8967 17.8409 10.8859C17.8669 10.8751 17.8875 10.8567 17.9027 10.8307C17.92 10.8068 17.9405 10.7657 17.9644 10.7072L18.0489 10.509L17.3991 8.83899H17.6817Z" fill="#121212"/>
<path d="M6.68253 0H10.6621V0.588483H8.99232V5.18435H8.35234V0.588483H6.68253V0Z" fill="#121212"/>
<path d="M10.4634 3.27342C10.4634 2.89092 10.5369 2.555 10.684 2.26566C10.8361 1.97632 11.0469 1.75319 11.3166 1.59626C11.5864 1.43443 11.8953 1.35351 12.2435 1.35351C12.5868 1.35351 12.8908 1.42462 13.1556 1.56683C13.4205 1.70905 13.6289 1.91502 13.7809 2.18474C13.9329 2.45446 14.0138 2.77077 14.0237 3.13368C14.0237 3.18763 14.0188 3.27342 14.009 3.39115H11.096V3.44261C11.1058 3.81043 11.2186 4.10466 11.4343 4.32534C11.6501 4.54603 11.9321 4.65638 12.2803 4.65638C12.55 4.65638 12.7781 4.59015 12.9644 4.45775C13.1556 4.32043 13.2832 4.13165 13.3469 3.89134H13.9575C13.8839 4.27385 13.7 4.58772 13.4057 4.83291C13.1115 5.07321 12.7511 5.19337 12.3244 5.19337C11.9517 5.19337 11.6256 5.11488 11.3461 4.95798C11.0665 4.79613 10.8483 4.57056 10.6914 4.28122C10.5393 3.98696 10.4634 3.65104 10.4634 3.27342ZM13.3984 2.89092C13.369 2.57216 13.2488 2.32451 13.038 2.14796C12.832 1.97142 12.5696 1.88315 12.2509 1.88315C11.9664 1.88315 11.7163 1.97632 11.5005 2.16267C11.2848 2.34903 11.1622 2.59178 11.1327 2.89092H13.3984Z" fill="#121212"/>
<path d="M15.1684 3.91342C15.1782 4.13899 15.2763 4.32289 15.4626 4.46512C15.6539 4.60731 15.8991 4.67843 16.1982 4.67843C16.4631 4.67843 16.6764 4.62694 16.8382 4.52395C17.005 4.41608 17.0883 4.2763 17.0883 4.10466C17.0883 3.95755 17.0491 3.84476 16.9706 3.76628C16.8922 3.68783 16.7892 3.63388 16.6617 3.60446C16.5391 3.57504 16.3625 3.5456 16.132 3.51618C15.8084 3.47694 15.5435 3.42544 15.3376 3.3617C15.1316 3.29795 14.9649 3.19742 14.8374 3.06011C14.7099 2.91791 14.6461 2.72418 14.6461 2.47898C14.6461 2.2583 14.7074 2.06214 14.83 1.8905C14.9575 1.71886 15.1292 1.58645 15.3449 1.49328C15.5607 1.39519 15.8035 1.34615 16.0732 1.34615C16.5145 1.34615 16.8725 1.44914 17.1472 1.65511C17.4267 1.86108 17.5812 2.15532 17.6106 2.53783H17.0074C16.9829 2.34167 16.8873 2.17984 16.7205 2.05233C16.5538 1.92483 16.3454 1.86108 16.0953 1.86108C15.8402 1.86108 15.6343 1.91502 15.4773 2.02291C15.3204 2.12589 15.2419 2.2632 15.2419 2.43485C15.2419 2.56235 15.2787 2.66043 15.3523 2.72909C15.4258 2.79774 15.519 2.84434 15.6318 2.86884C15.7495 2.89337 15.9261 2.92033 16.1615 2.94978C16.49 2.98899 16.7597 3.04294 16.9706 3.1116C17.1864 3.18026 17.358 3.29058 17.4855 3.44261C17.618 3.59463 17.6842 3.80061 17.6842 4.06053C17.6842 4.2861 17.618 4.48474 17.4855 4.65638C17.3531 4.828 17.1741 4.96043 16.9485 5.05359C16.723 5.14676 16.4729 5.19337 16.1982 5.19337C15.7078 5.19337 15.3131 5.08055 15.0139 4.85499C14.7197 4.62939 14.5701 4.31555 14.5652 3.91342H15.1684Z" fill="#121212"/>
<path d="M18.6185 1.98688H17.9418V1.43518H18.6185V0.38327H19.2217V1.43518H20.1707V1.98688H19.2217V4.20106C19.2217 4.35797 19.2512 4.47078 19.31 4.53944C19.3738 4.60318 19.4817 4.63506 19.6337 4.63506H20.2884V5.18675H19.5969C19.2438 5.18675 18.9912 5.10829 18.8392 4.95136C18.6921 4.79445 18.6185 4.54678 18.6185 4.2084V1.98688Z" fill="#121212"/>
<path d="M20.8058 0H21.6149L23.4392 4.27385L25.2414 0H26.0359V5.18672H25.4106V1.08869L23.6957 5.18746H23.1562L21.431 1.08869V5.18675H20.8058V0Z" fill="#121212"/>
<path d="M30.175 1.39765V5.14921H29.6527L29.5719 4.64901C29.2874 5.0119 28.8877 5.19337 28.3728 5.19337C27.9265 5.19337 27.5685 5.05605 27.2988 4.78142C27.0291 4.50678 26.8942 4.07524 26.8942 3.48676V1.39765H27.4974V3.44998C27.4974 3.83739 27.5808 4.13408 27.7475 4.34005C27.9191 4.54111 28.1619 4.64164 28.4757 4.64164C28.819 4.64164 29.0863 4.51907 29.2775 4.27385C29.4736 4.02866 29.5719 3.69517 29.5719 3.27342V1.39765H30.175Z" fill="#121212"/>
<path d="M32.5736 5.18591L34.5555 0H35.3131L37.2822 5.18591H36.5951L36.0415 3.75894H33.7979L33.242 5.18591H32.5736ZM33.9891 3.1778H35.8503L34.916 0.698822L33.9891 3.1778Z" fill="#121212"/>
<path d="M37.8526 0H38.4924V5.18591H37.8526V0Z" fill="#121212"/>
<path d="M5.14667 0H3.60267V3.73129H5.14667V0Z" fill="#121212"/>
<path d="M1.54398 0H0V2.12297L1.54398 3.73129V0Z" fill="#121212"/>
<path d="M1.54398 3.73129H0V5.78994H1.54398V3.73129Z" fill="#121212"/>
<path d="M3.60267 3.73129H1.54398L2.76653 5.27526H3.60287L3.60267 3.73129Z" fill="#121212"/>
</g>
<defs>
<clipPath id="clip0_24515_3938">
<rect width="44.5714" height="12" fill="white"/>
</clipPath>
</defs>
</svg>
